<svg xmlns="http://www.w3.org/2000/svg" xmlns:xlink="http://www.w3.org/1999/xlink" width="500" zoomAndPan="magnify" viewBox="0 0 375 374.999991" height="500" preserveAspectRatio="xMidYMid meet" version="1.0"><defs><clipPath id="53c71ba488"><path d="M 187.5 0 C 83.945312 0 0 83.945312 0 187.5 C 0 291.054688 83.945312 375 187.5 375 C 291.054688 375 375 291.054688 375 187.5 C 375 83.945312 291.054688 0 187.5 0 Z M 187.5 0 " clip-rule="nonzero"/></clipPath></defs><g clip-path="url(#53c71ba488)"><rect x="-37.5" width="450" fill="#ffffff" y="-37.499999" height="449.999989" fill-opacity="1"/></g><path fill="#2a6041" d="M 187.5 0 C 84.113281 0 0 84.113281 0 187.5 C 0 290.886719 84.113281 375 187.5 375 C 290.886719 375 375 290.886719 375 187.5 C 375 84.113281 290.886719 0 187.5 0 Z M 28.679688 260.703125 C 44.6875 260.050781 78.984375 260.117188 102.375 270.535156 C 92.378906 277.722656 83.917969 284.613281 76.992188 290.65625 C 64.546875 280.5 43.152344 274.945312 35.015625 273.117188 C 32.730469 269.03125 30.640625 264.917969 28.679688 260.703125 Z M 114.164062 262.371094 C 85.484375 246.070312 38.675781 247.375 23.519531 248.324219 C 23.128906 247.277344 22.734375 246.199219 22.375 245.121094 C 39.132812 240.125 89.929688 227.972656 142.648438 245.382812 C 141.34375 246.070312 140.070312 246.753906 138.761719 247.472656 C 129.878906 252.375 121.710938 257.371094 114.164062 262.371094 Z M 145.261719 258.253906 C 191.648438 232.710938 266.0625 206.609375 358.078125 226.109375 C 357.914062 226.828125 357.753906 227.582031 357.554688 228.300781 C 321.65625 225.6875 287.585938 230.421875 256.164062 242.410156 C 229.769531 252.472656 205.203125 267.660156 183.15625 287.488281 C 153.460938 314.210938 136.671875 341.84375 130.597656 352.886719 C 107.402344 344.882812 86.367188 332.109375 68.726562 315.777344 C 78.496094 305.75 105.148438 280.335938 145.261719 258.253906 Z M 187.5 12.609375 C 283.929688 12.609375 362.390625 91.070312 362.390625 187.5 C 362.390625 196.417969 361.707031 205.171875 360.429688 213.730469 C 318.519531 204.878906 276.675781 204.289062 235.941406 212.03125 C 220.851562 214.90625 205.890625 218.925781 191.160156 224.019531 L 191.160156 191.417969 C 197.5625 193.707031 204.941406 192.890625 210.855469 188.546875 C 217.226562 183.90625 220.230469 176.394531 219.445312 169.078125 C 212.71875 166.105469 204.648438 166.726562 198.28125 171.363281 C 194.980469 173.78125 192.5625 176.980469 191.125 180.507812 L 191.125 154.082031 C 199.421875 147.550781 204.78125 137.421875 204.78125 126.023438 C 204.78125 112.792969 197.59375 101.261719 186.910156 95.089844 C 176.230469 101.261719 169.042969 112.792969 169.042969 126.023438 C 169.042969 137.882812 174.859375 148.367188 183.742188 154.867188 L 183.742188 193.609375 C 182.503906 191.976562 181.03125 190.472656 179.300781 189.199219 C 172.929688 184.558594 164.863281 183.941406 158.132812 186.910156 C 157.351562 194.230469 160.355469 201.742188 166.726562 206.378906 C 171.820312 210.105469 178.027344 211.214844 183.742188 210.007812 L 183.742188 226.667969 C 175.054688 229.933594 166.429688 233.558594 157.90625 237.578125 C 97.210938 212.785156 37.925781 227.023438 18.519531 232.96875 C 14.601562 218.433594 12.511719 203.179688 12.511719 187.433594 C 12.609375 91.070312 91.070312 12.609375 187.5 12.609375 Z M 45.078125 288.894531 C 52.984375 291.441406 61.671875 294.9375 67.550781 299.214844 C 64.382812 302.222656 61.804688 304.835938 59.8125 306.890625 C 54.519531 301.207031 49.585938 295.230469 45.078125 288.894531 Z M 143.007812 356.640625 C 149.640625 345.078125 165.613281 320.1875 191.976562 296.539062 C 237.707031 255.542969 292.226562 236.792969 354.125 240.710938 C 353.507812 242.671875 352.851562 244.597656 352.167969 246.527344 C 311.957031 253.355469 275.535156 275.796875 246.558594 311.695312 C 230.488281 331.585938 220.820312 350.46875 216.441406 360.007812 C 207.035156 361.574219 197.363281 362.421875 187.53125 362.421875 C 172.113281 362.390625 157.21875 360.398438 143.007812 356.640625 Z M 232.1875 356.609375 C 246.070312 330.148438 282.035156 275.109375 346.417969 260.507812 C 324.792969 307.414062 282.980469 343.152344 232.1875 356.609375 Z M 232.1875 356.609375 " fill-opacity="1" fill-rule="nonzero"/></svg>