<svg xmlns="http://www.w3.org/2000/svg" xmlns:xlink="http://www.w3.org/1999/xlink" width="1000" zoomAndPan="magnify" viewBox="0 0 750 749.999995" height="1000" preserveAspectRatio="xMidYMid meet" version="1.0"><path fill="#80cc28" d="M 282.304688 192.257812 C 276.675781 195.980469 271.582031 199.832031 267.015625 203.621094 C 248.125 219.28125 238.339844 233.863281 238.339844 233.863281 C 238.339844 233.863281 253.800781 224.480469 278.894531 216.167969 C 285.148438 214.097656 291.988281 212.09375 299.339844 210.316406 C 343.339844 199.707031 405.515625 197.257812 466.699219 237.539062 C 466.699219 237.539062 398.507812 204.816406 320.308594 228.902344 C 314.328125 230.738281 308.28125 232.917969 302.203125 235.46875 C 288.660156 241.152344 274.949219 248.6875 261.367188 258.515625 C 327.902344 320.660156 392.96875 305.632812 445.769531 288.597656 C 452.410156 286.457031 458.855469 284.285156 465.089844 282.226562 C 493.207031 272.945312 516.347656 270.132812 533.226562 269.816406 C 553.417969 269.433594 564.628906 272.636719 564.628906 272.636719 C 430.878906 134.410156 334.265625 157.867188 282.304688 192.257812 " fill-opacity="1" fill-rule="nonzero"/><path fill="#80cc28" d="M 551.007812 11.808594 C 541.324219 17.101562 527.273438 23.015625 508.300781 26.875 C 504.101562 27.722656 499.734375 28.585938 495.273438 29.519531 C 459.78125 36.984375 417.972656 49.570312 400.371094 106.417969 C 411.265625 107.601562 421.488281 107.425781 431.023438 106.253906 C 435.300781 105.730469 439.4375 105 443.441406 104.105469 C 495.632812 92.402344 523.714844 51.707031 523.714844 51.707031 C 502.058594 94.421875 465.976562 113.210938 437.5625 121.460938 C 432.8125 122.839844 428.28125 123.917969 424.066406 124.773438 C 407.121094 128.195312 395.300781 127.886719 395.300781 127.886719 C 395.300781 127.886719 405.585938 132.992188 421.386719 135.75 C 425.207031 136.414062 429.351562 136.945312 433.75 137.238281 C 474.402344 139.902344 536.847656 121.863281 567.910156 0.015625 C 567.910156 0.015625 562.585938 5.46875 551.007812 11.808594 " fill-opacity="1" fill-rule="nonzero"/><path fill="#80cc28" d="M 505.765625 687.949219 C 356.429688 718.617188 210.507812 622.421875 179.832031 473.085938 C 149.164062 323.75 245.359375 177.820312 394.695312 147.152344 C 454.757812 134.820312 514.253906 143.015625 565.9375 166.921875 C 504.703125 131.207031 430.617188 117.046875 355.722656 132.429688 C 194.34375 165.574219 90.378906 323.273438 123.527344 484.648438 C 156.675781 646.03125 314.367188 749.992188 475.75 716.84375 C 550.644531 701.460938 613.160156 659.242188 655.351562 602.296875 C 617.28125 644.636719 565.828125 675.621094 505.765625 687.949219 " fill-opacity="1" fill-rule="nonzero"/><path fill="#6b3e0a" d="M 221.070312 431.59375 C 215.074219 433.636719 209.257812 435.816406 203.644531 438.140625 C 432.8125 467.777344 528.226562 585.796875 564.84375 653.988281 C 588.300781 642.65625 609.917969 627.851562 629.144531 609.902344 C 594.394531 573.632812 458.6875 449.003906 221.070312 431.59375 Z M 395.917969 414.207031 C 334.082031 408.453125 276.074219 414.40625 228.8125 429.089844 C 303.511719 427.601562 515.15625 437.570312 652.085938 585.945312 C 652.109375 585.71875 652.140625 585.496094 652.164062 585.265625 C 659.667969 504.671875 544.945312 428.089844 395.917969 414.207031 Z M 200.175781 439.613281 C 197.621094 440.714844 195.109375 441.847656 192.644531 443.003906 C 334.289062 487.523438 404.09375 594.441406 438.109375 679.988281 C 459.789062 680.96875 481.589844 679.28125 503.082031 674.867188 C 509.300781 673.59375 515.433594 672.070312 521.488281 670.375 C 439.675781 506.480469 264.710938 453.835938 200.175781 439.613281 Z M 189.054688 445.816406 C 189.960938 454.011719 191.234375 462.214844 192.914062 470.398438 C 213.589844 571.039062 288.867188 648.164062 385.84375 672.347656 C 333.457031 536.125 230.605469 468.480469 189.054688 445.816406 " fill-opacity="1" fill-rule="nonzero"/></svg>