<svg xmlns="http://www.w3.org/2000/svg" xmlns:xlink="http://www.w3.org/1999/xlink" width="500" zoomAndPan="magnify" viewBox="0 0 375 374.999991" height="500" preserveAspectRatio="xMidYMid meet" version="1.0"><defs><clipPath id="4f8c155291"><path d="M 187.5 0 C 83.945312 0 0 83.945312 0 187.5 C 0 291.054688 83.945312 375 187.5 375 C 291.054688 375 375 291.054688 375 187.5 C 375 83.945312 291.054688 0 187.5 0 Z M 187.5 0 " clip-rule="nonzero"/></clipPath><clipPath id="5dfcb97d74"><path d="M 48 76.304688 L 327.6875 76.304688 L 327.6875 299 L 48 299 Z M 48 76.304688 " clip-rule="nonzero"/></clipPath></defs><g clip-path="url(#4f8c155291)"><rect x="-37.5" width="450" fill="#ffffff" y="-37.499999" height="449.999989" fill-opacity="1"/></g><g clip-path="url(#5dfcb97d74)"><path fill="#000000" d="M 66.664062 259.671875 L 67.109375 259.671875 C 71.550781 259.671875 82.695312 258.785156 93.003906 250.8125 C 98.332031 254.519531 108.085938 259.671875 121.105469 259.671875 C 127.027344 259.671875 138.433594 258.472656 149.5 250.605469 C 161.113281 256.203125 173.972656 259.335938 186.78125 259.671875 C 186.820312 259.671875 186.859375 259.671875 186.898438 259.671875 C 198.273438 259.371094 209.335938 256.976562 219.835938 252.554688 L 219.835938 278.082031 L 210.738281 294.078125 C 210.378906 294.703125 210.351562 295.46875 210.65625 296.121094 C 210.964844 296.777344 211.570312 297.238281 212.28125 297.363281 C 222.082031 299.082031 231.824219 299.082031 241.234375 297.359375 C 247.589844 296.199219 251.707031 294.640625 255.339844 293.265625 C 259.6875 291.621094 263.125 290.324219 269.007812 290.324219 C 274.886719 290.324219 278.324219 291.621094 282.671875 293.265625 C 286.304688 294.640625 290.421875 296.195312 296.78125 297.359375 C 301.488281 298.222656 306.277344 298.652344 311.117188 298.652344 C 315.949219 298.652344 320.835938 298.222656 325.730469 297.363281 C 326.441406 297.238281 327.046875 296.777344 327.355469 296.121094 C 327.664062 295.46875 327.632812 294.703125 327.273438 294.078125 L 318.175781 278.082031 L 318.175781 229.070312 C 318.175781 211.503906 308.175781 195.476562 292.558594 187.769531 L 297.023438 156.382812 C 297.140625 155.566406 296.792969 154.75 296.125 154.269531 C 295.457031 153.785156 294.574219 153.714844 293.835938 154.085938 L 280.839844 160.609375 L 270.148438 154.167969 C 269.445312 153.742188 268.566406 153.742188 267.863281 154.167969 L 265.9375 155.328125 L 262.351562 150.527344 C 258.394531 145.226562 252.089844 142.0625 245.492188 142.0625 L 244.546875 142.0625 L 244.546875 125.421875 C 244.546875 124.195312 243.554688 123.199219 242.328125 123.199219 L 232.976562 123.199219 C 231.757812 123.199219 230.765625 124.191406 230.761719 125.417969 C 230.761719 125.417969 230.753906 130.125 230.746094 134.835938 C 230.746094 137.191406 230.746094 139.550781 230.746094 141.320312 C 230.746094 141.585938 230.746094 141.832031 230.746094 142.0625 L 140.660156 142.0625 L 140.660156 125.339844 C 140.660156 124.113281 139.667969 123.121094 138.445312 123.121094 L 129.09375 123.121094 C 127.871094 123.121094 126.878906 124.113281 126.878906 125.335938 C 126.878906 125.335938 126.867188 130.042969 126.863281 134.753906 C 126.859375 137.113281 126.859375 139.46875 126.859375 141.242188 C 126.863281 141.558594 126.863281 141.839844 126.863281 142.109375 C 120.753906 142.5 115.019531 145.582031 111.324219 150.527344 L 52.078125 229.859375 C 47.851562 235.523438 47.167969 242.988281 50.300781 249.339844 C 53.40625 255.636719 59.675781 259.597656 66.664062 259.671875 Z M 95.785156 247.339844 L 148.269531 146.503906 L 172.261719 146.503906 L 147.320312 246.703125 C 137.132812 254.105469 126.5625 255.234375 121.105469 255.234375 C 109.457031 255.234375 100.683594 250.695312 95.785156 247.339844 Z M 186.839844 255.230469 C 174.832031 254.90625 162.78125 251.996094 151.863281 246.808594 L 176.832031 146.503906 L 196.84375 146.503906 L 219.835938 238.863281 L 219.835938 247.71875 C 209.355469 252.390625 198.261719 254.921875 186.839844 255.230469 Z M 245.453125 187.777344 C 231.878906 194.582031 222.550781 207.671875 220.34375 222.546875 L 201.414062 146.503906 L 225.40625 146.503906 L 244.914062 183.984375 Z M 269.007812 158.664062 L 279.601562 165.046875 C 280.253906 165.4375 281.058594 165.46875 281.738281 165.128906 L 292.039062 159.957031 L 287.941406 188.765625 C 287.867188 189.285156 287.980469 189.8125 288.25 190.25 C 288.484375 190.625 288.824219 190.925781 289.230469 191.109375 C 304.121094 197.789062 313.742188 212.691406 313.742188 229.070312 L 313.742188 278.671875 C 313.742188 279.058594 313.84375 279.4375 314.035156 279.773438 L 321.832031 293.476562 C 313.609375 294.597656 305.464844 294.433594 297.578125 292.992188 C 291.613281 291.902344 287.695312 290.417969 284.238281 289.113281 C 279.65625 287.378906 275.695312 285.882812 269.007812 285.882812 C 262.316406 285.882812 258.355469 287.378906 253.773438 289.113281 C 250.316406 290.417969 246.398438 291.902344 240.4375 292.992188 C 232.546875 294.433594 224.402344 294.597656 216.179688 293.476562 L 223.976562 279.773438 C 224.167969 279.4375 224.269531 279.058594 224.269531 278.671875 L 224.269531 229.359375 C 224.269531 212.921875 233.894531 197.902344 248.796875 191.101562 C 249.691406 190.691406 250.210938 189.742188 250.070312 188.765625 L 245.972656 159.957031 L 256.273438 165.128906 C 256.953125 165.46875 257.757812 165.4375 258.410156 165.046875 Z M 258.804688 153.1875 L 262.121094 157.628906 L 257.171875 160.613281 L 244.175781 154.085938 C 243.4375 153.714844 242.554688 153.785156 241.886719 154.269531 C 241.21875 154.753906 240.871094 155.566406 240.988281 156.386719 L 243.035156 170.773438 L 230.402344 146.503906 L 245.492188 146.503906 C 250.699219 146.503906 255.675781 149.003906 258.804688 153.1875 Z M 235.191406 127.640625 L 240.113281 127.640625 L 240.113281 142.0625 L 235.179688 142.0625 C 235.171875 138.890625 235.179688 132.753906 235.191406 127.640625 Z M 131.304688 127.5625 L 136.230469 127.5625 L 136.230469 142.0625 L 131.292969 142.0625 C 131.289062 138.914062 131.296875 132.71875 131.304688 127.5625 Z M 55.628906 232.519531 L 114.871094 153.1875 C 118 149.003906 122.976562 146.503906 128.1875 146.503906 L 143.273438 146.503906 L 91.179688 246.589844 C 81.707031 254.378906 71.214844 255.230469 67.109375 255.230469 L 66.710938 255.230469 C 61.324219 255.171875 56.671875 252.234375 54.273438 247.371094 C 51.847656 242.453125 52.355469 236.902344 55.628906 232.519531 Z M 121.664062 106.191406 C 120.851562 105.273438 120.933594 103.871094 121.847656 103.058594 C 122.765625 102.242188 124.164062 102.328125 124.976562 103.246094 L 130.710938 109.71875 C 131.523438 110.636719 131.441406 112.042969 130.523438 112.855469 C 130.101562 113.230469 129.578125 113.414062 129.054688 113.414062 C 128.445312 113.414062 127.835938 113.164062 127.398438 112.667969 Z M 110.195312 93.238281 C 109.382812 92.320312 109.464844 90.917969 110.382812 90.105469 C 111.296875 89.289062 112.695312 89.375 113.507812 90.292969 L 119.242188 96.769531 C 120.054688 97.683594 119.972656 99.089844 119.058594 99.902344 C 118.632812 100.277344 118.109375 100.460938 117.585938 100.460938 C 116.976562 100.460938 116.367188 100.210938 115.929688 99.714844 Z M 98.726562 80.285156 C 97.914062 79.367188 97.996094 77.964844 98.914062 77.152344 C 99.828125 76.335938 101.230469 76.421875 102.042969 77.339844 L 107.773438 83.816406 C 108.585938 84.734375 108.503906 86.136719 107.589844 86.949219 C 107.167969 87.324219 106.640625 87.507812 106.117188 87.507812 C 105.507812 87.507812 104.898438 87.257812 104.460938 86.761719 Z M 136.972656 112.855469 C 136.058594 112.042969 135.976562 110.640625 136.789062 109.722656 L 142.523438 103.246094 C 143.335938 102.328125 144.734375 102.242188 145.648438 103.058594 C 146.566406 103.871094 146.648438 105.273438 145.835938 106.191406 L 140.101562 112.667969 C 139.664062 113.164062 139.054688 113.414062 138.445312 113.414062 C 137.921875 113.414062 137.398438 113.230469 136.972656 112.855469 Z M 148.441406 99.902344 C 147.527344 99.089844 147.441406 97.6875 148.257812 96.769531 L 153.988281 90.292969 C 154.800781 89.375 156.203125 89.289062 157.117188 90.105469 C 158.035156 90.917969 158.117188 92.320312 157.304688 93.238281 L 151.570312 99.714844 C 151.132812 100.210938 150.523438 100.460938 149.914062 100.460938 C 149.390625 100.460938 148.863281 100.277344 148.441406 99.902344 Z M 159.910156 86.949219 C 158.996094 86.136719 158.910156 84.734375 159.722656 83.816406 L 165.457031 77.339844 C 166.269531 76.421875 167.671875 76.335938 168.585938 77.152344 C 169.503906 77.964844 169.585938 79.367188 168.773438 80.285156 L 163.039062 86.761719 C 162.601562 87.257812 161.992188 87.511719 161.378906 87.511719 C 160.859375 87.507812 160.332031 87.324219 159.910156 86.949219 Z M 109.039062 114.570312 C 109.457031 113.417969 110.726562 112.820312 111.878906 113.238281 L 119.996094 116.179688 C 121.148438 116.597656 121.742188 117.871094 121.324219 119.023438 C 121 119.925781 120.148438 120.488281 119.242188 120.488281 C 118.992188 120.488281 118.738281 120.445312 118.488281 120.355469 L 110.371094 117.414062 C 109.21875 116.996094 108.625 115.722656 109.039062 114.570312 Z M 92.808594 108.6875 C 93.222656 107.535156 94.496094 106.9375 95.644531 107.355469 L 103.761719 110.296875 C 104.914062 110.710938 105.507812 111.984375 105.089844 113.140625 C 104.765625 114.042969 103.914062 114.605469 103.007812 114.605469 C 102.757812 114.605469 102.503906 114.5625 102.253906 114.472656 L 94.136719 111.53125 C 92.984375 111.113281 92.390625 109.839844 92.808594 108.6875 Z M 76.574219 102.804688 C 76.988281 101.648438 78.257812 101.054688 79.410156 101.46875 L 87.527344 104.414062 C 88.679688 104.828125 89.273438 106.101562 88.855469 107.253906 C 88.53125 108.160156 87.679688 108.722656 86.773438 108.722656 C 86.523438 108.722656 86.269531 108.679688 86.019531 108.589844 L 77.902344 105.648438 C 76.75 105.230469 76.15625 103.957031 76.574219 102.804688 Z M 147.503906 116.179688 L 155.621094 113.238281 C 156.773438 112.820312 158.042969 113.417969 158.457031 114.570312 C 158.875 115.722656 158.277344 116.996094 157.128906 117.414062 L 149.011719 120.355469 C 148.761719 120.445312 148.507812 120.488281 148.257812 120.488281 C 147.351562 120.488281 146.5 119.925781 146.175781 119.023438 C 145.757812 117.871094 146.351562 116.597656 147.503906 116.179688 Z M 163.738281 110.296875 L 171.855469 107.355469 C 173.003906 106.9375 174.277344 107.535156 174.691406 108.6875 C 175.109375 109.839844 174.511719 111.113281 173.363281 111.53125 L 165.246094 114.472656 C 164.996094 114.5625 164.742188 114.605469 164.492188 114.605469 C 163.585938 114.605469 162.734375 114.042969 162.40625 113.140625 C 161.992188 111.984375 162.585938 110.714844 163.738281 110.296875 Z M 178.640625 107.253906 C 178.226562 106.101562 178.820312 104.828125 179.972656 104.414062 L 188.089844 101.46875 C 189.238281 101.054688 190.511719 101.648438 190.925781 102.804688 C 191.34375 103.957031 190.746094 105.230469 189.597656 105.648438 L 181.480469 108.589844 C 181.230469 108.679688 180.976562 108.722656 180.726562 108.722656 C 179.820312 108.722656 178.96875 108.160156 178.640625 107.253906 Z M 225.546875 106.273438 C 224.734375 105.355469 224.820312 103.953125 225.734375 103.136719 C 226.648438 102.324219 228.050781 102.40625 228.863281 103.324219 L 234.597656 109.800781 C 235.410156 110.71875 235.324219 112.121094 234.410156 112.9375 C 233.988281 113.3125 233.464844 113.496094 232.941406 113.496094 C 232.328125 113.496094 231.71875 113.242188 231.28125 112.75 Z M 214.078125 93.320312 C 213.265625 92.402344 213.351562 91 214.265625 90.183594 C 215.179688 89.371094 216.582031 89.457031 217.394531 90.371094 L 223.128906 96.847656 C 223.941406 97.765625 223.855469 99.167969 222.941406 99.984375 C 222.519531 100.359375 221.996094 100.542969 221.472656 100.542969 C 220.859375 100.542969 220.25 100.289062 219.8125 99.796875 Z M 202.609375 80.367188 C 201.796875 79.449219 201.882812 78.046875 202.796875 77.230469 C 203.714844 76.417969 205.113281 76.503906 205.925781 77.417969 L 211.660156 83.894531 C 212.472656 84.8125 212.386719 86.214844 211.472656 87.03125 C 211.050781 87.40625 210.527344 87.589844 210.003906 87.589844 C 209.390625 87.589844 208.78125 87.335938 208.34375 86.84375 Z M 240.859375 112.9375 C 239.945312 112.121094 239.859375 110.71875 240.671875 109.800781 L 246.40625 103.324219 C 247.21875 102.40625 248.621094 102.324219 249.535156 103.136719 C 250.449219 103.953125 250.535156 105.355469 249.722656 106.273438 L 243.988281 112.75 C 243.550781 113.242188 242.941406 113.496094 242.328125 113.496094 C 241.804688 113.496094 241.28125 113.3125 240.859375 112.9375 Z M 252.328125 99.984375 C 251.410156 99.167969 251.328125 97.765625 252.140625 96.847656 L 257.875 90.371094 C 258.6875 89.453125 260.085938 89.371094 261.003906 90.183594 C 261.917969 91 262.003906 92.402344 261.191406 93.320312 L 255.457031 99.796875 C 255.019531 100.289062 254.410156 100.542969 253.796875 100.542969 C 253.273438 100.542969 252.75 100.359375 252.328125 99.984375 Z M 263.796875 87.03125 C 262.878906 86.214844 262.796875 84.8125 263.609375 83.894531 L 269.34375 77.417969 C 270.15625 76.5 271.554688 76.417969 272.472656 77.230469 C 273.386719 78.046875 273.472656 79.449219 272.660156 80.367188 L 266.925781 86.84375 C 266.488281 87.335938 265.878906 87.589844 265.265625 87.589844 C 264.742188 87.589844 264.21875 87.40625 263.796875 87.03125 Z M 212.925781 114.652344 C 213.339844 113.496094 214.613281 112.902344 215.761719 113.316406 L 223.878906 116.261719 C 225.03125 116.675781 225.625 117.949219 225.210938 119.101562 C 224.882812 120.007812 224.03125 120.570312 223.125 120.570312 C 222.875 120.570312 222.621094 120.527344 222.371094 120.4375 L 214.253906 117.496094 C 213.105469 117.078125 212.507812 115.804688 212.925781 114.652344 Z M 196.691406 108.765625 C 197.105469 107.613281 198.378906 107.019531 199.527344 107.433594 L 207.644531 110.375 C 208.796875 110.792969 209.390625 112.066406 208.976562 113.21875 C 208.648438 114.125 207.796875 114.6875 206.890625 114.6875 C 206.640625 114.6875 206.386719 114.644531 206.136719 114.554688 L 198.019531 111.613281 C 196.871094 111.195312 196.277344 109.921875 196.691406 108.765625 Z M 251.390625 116.261719 L 259.503906 113.316406 C 260.65625 112.902344 261.925781 113.496094 262.34375 114.652344 C 262.757812 115.804688 262.164062 117.078125 261.011719 117.496094 L 252.894531 120.4375 C 252.648438 120.527344 252.394531 120.570312 252.144531 120.570312 C 251.234375 120.570312 250.386719 120.007812 250.058594 119.101562 C 249.640625 117.949219 250.238281 116.675781 251.390625 116.261719 Z M 267.621094 110.375 L 275.738281 107.433594 C 276.890625 107.019531 278.160156 107.613281 278.578125 108.765625 C 278.992188 109.921875 278.398438 111.195312 277.246094 111.609375 L 269.128906 114.550781 C 268.882812 114.640625 268.625 114.683594 268.375 114.683594 C 267.46875 114.683594 266.617188 114.121094 266.292969 113.21875 C 265.875 112.066406 266.472656 110.792969 267.621094 110.375 Z M 282.527344 107.335938 C 282.109375 106.183594 282.707031 104.910156 283.855469 104.492188 L 291.972656 101.550781 C 293.125 101.132812 294.394531 101.730469 294.8125 102.882812 C 295.226562 104.035156 294.632812 105.308594 293.480469 105.726562 L 285.363281 108.667969 C 285.117188 108.757812 284.859375 108.800781 284.609375 108.800781 C 283.703125 108.800781 282.851562 108.238281 282.527344 107.335938 Z M 257.269531 196.015625 C 256.042969 196.015625 255.050781 195.023438 255.050781 193.796875 C 255.050781 192.570312 256.042969 191.574219 257.269531 191.574219 L 280.746094 191.574219 C 281.96875 191.574219 282.960938 192.570312 282.960938 193.796875 C 282.960938 195.023438 281.96875 196.015625 280.746094 196.015625 Z M 245.660156 215.015625 L 245.660156 257.453125 C 245.660156 264.09375 255.699219 269.105469 269.007812 269.105469 C 282.316406 269.105469 292.351562 264.09375 292.351562 257.453125 L 292.351562 215.015625 C 292.351562 208.371094 282.316406 203.363281 269.007812 203.363281 C 255.699219 203.363281 245.660156 208.371094 245.660156 215.015625 Z M 259.695312 208.808594 L 272.890625 222.0625 C 271.660156 222.164062 270.363281 222.222656 269.007812 222.222656 C 257.289062 222.222656 250.09375 218.023438 250.09375 215.015625 C 250.09375 212.914062 253.597656 210.234375 259.695312 208.808594 Z M 269.007812 264.664062 C 257.289062 264.664062 250.09375 260.464844 250.09375 257.453125 L 250.09375 250.308594 C 254.265625 253.167969 261.050781 254.957031 269.007812 254.957031 C 276.964844 254.957031 283.746094 253.167969 287.917969 250.308594 L 287.917969 257.453125 C 287.917969 260.464844 280.722656 264.664062 269.007812 264.664062 Z M 269.007812 250.515625 C 257.289062 250.515625 250.09375 246.316406 250.09375 243.308594 L 250.09375 236.160156 C 254.265625 239.019531 261.050781 240.8125 269.007812 240.8125 C 276.964844 240.8125 283.746094 239.019531 287.917969 236.160156 L 287.917969 243.308594 C 287.917969 246.316406 280.722656 250.515625 269.007812 250.515625 Z M 269.007812 236.371094 C 257.289062 236.371094 250.09375 232.171875 250.09375 229.160156 L 250.09375 222.015625 C 254.265625 224.875 261.050781 226.664062 269.007812 226.664062 C 276.964844 226.664062 283.746094 224.875 287.917969 222.015625 L 287.917969 229.160156 C 287.917969 232.171875 280.722656 236.371094 269.007812 236.371094 Z M 287.917969 215.015625 C 287.917969 217.113281 284.414062 219.792969 278.316406 221.21875 L 265.121094 207.96875 C 266.351562 207.863281 267.648438 207.804688 269.007812 207.804688 C 280.722656 207.804688 287.917969 212.003906 287.917969 215.015625 Z M 266.789062 184.363281 L 266.789062 170.21875 C 266.789062 168.992188 267.78125 167.996094 269.007812 167.996094 C 270.230469 167.996094 271.222656 168.992188 271.222656 170.21875 L 271.222656 184.363281 C 271.222656 185.589844 270.230469 186.585938 269.007812 186.585938 C 267.78125 186.585938 266.789062 185.589844 266.789062 184.363281 Z M 256.980469 171.753906 L 261.675781 183.539062 C 262.128906 184.679688 261.574219 185.972656 260.4375 186.425781 C 260.167969 186.535156 259.890625 186.585938 259.617188 186.585938 C 258.738281 186.585938 257.902344 186.054688 257.558594 185.1875 L 252.863281 173.398438 C 252.410156 172.257812 252.960938 170.964844 254.101562 170.511719 C 255.234375 170.058594 256.523438 170.613281 256.980469 171.753906 Z M 276.339844 183.539062 L 281.035156 171.753906 C 281.488281 170.613281 282.777344 170.058594 283.914062 170.511719 C 285.050781 170.96875 285.605469 172.257812 285.152344 173.398438 L 280.457031 185.1875 C 280.109375 186.054688 279.277344 186.585938 278.394531 186.585938 C 278.121094 186.585938 277.84375 186.535156 277.574219 186.425781 C 276.4375 185.972656 275.886719 184.679688 276.339844 183.539062 Z M 276.339844 183.539062 " fill-opacity="1" fill-rule="nonzero"/></g></svg>