<svg xmlns="http://www.w3.org/2000/svg" xmlns:xlink="http://www.w3.org/1999/xlink" width="500" zoomAndPan="magnify" viewBox="0 0 375 374.999991" height="500" preserveAspectRatio="xMidYMid meet" version="1.0"><defs><clipPath id="e53e2f06ca"><path d="M 187.5 0 C 83.945312 0 0 83.945312 0 187.5 C 0 291.054688 83.945312 375 187.5 375 C 291.054688 375 375 291.054688 375 187.5 C 375 83.945312 291.054688 0 187.5 0 Z M 187.5 0 " clip-rule="nonzero"/></clipPath><clipPath id="4d26e14c48"><path d="M 52 58 L 326 58 L 326 320.402344 L 52 320.402344 Z M 52 58 " clip-rule="nonzero"/></clipPath></defs><g clip-path="url(#e53e2f06ca)"><rect x="-37.5" width="450" fill="#ffffff" y="-37.499999" height="449.999989" fill-opacity="1"/></g><g clip-path="url(#4d26e14c48)"><path fill="#6b3e0a" d="M 323.039062 141.957031 C 310.644531 128.710938 281.945312 117.335938 272.945312 118.355469 C 266.496094 119.035156 253.757812 123.789062 248.324219 125.996094 C 248.15625 125.824219 248.15625 125.65625 247.984375 125.484375 C 264.285156 109.183594 266.15625 81.167969 262.078125 70.640625 C 260.550781 66.5625 257.835938 65.882812 256.644531 65.714844 C 252.738281 65.714844 250.871094 70.640625 250.363281 72.335938 C 245.097656 87.109375 229.816406 98.65625 224.722656 102.222656 C 214.363281 95.089844 202.648438 90.167969 191.269531 90.167969 C 184.308594 90.167969 175.988281 93.054688 167.160156 97.976562 C 162.066406 92.375 148.480469 75.734375 144.914062 63.675781 C 143.894531 60.28125 142.199219 58.414062 139.820312 58.074219 C 138.292969 57.902344 135.914062 58.414062 133.707031 61.808594 C 127.933594 70.980469 124.539062 99.675781 137.613281 121.242188 C 136.59375 122.257812 135.40625 123.449219 134.386719 124.636719 C 127.253906 120.730469 107.21875 110.542969 96.179688 111.902344 C 82.765625 113.601562 60.691406 129.730469 55.425781 134.996094 C 52.371094 138.050781 52.03125 141.277344 52.371094 143.484375 C 53.21875 148.75 58.992188 154.011719 69.183594 158.9375 C 71.558594 160.125 73.9375 161.484375 76.484375 162.84375 C 87.351562 168.785156 99.578125 175.410156 115.539062 168.957031 C 116.21875 171.671875 117.066406 174.21875 117.914062 176.597656 C 119.273438 180.84375 120.632812 184.917969 120.460938 188.3125 C 119.953125 200.03125 107.726562 232.125 96.691406 250.632812 C 84.804688 270.5 84.804688 272.535156 84.804688 291.554688 C 84.804688 301.234375 88.199219 306.667969 94.820312 307.347656 C 97.707031 311.082031 106.878906 320.25 125.21875 320.25 C 142.707031 320.25 150.859375 313.96875 153.746094 310.914062 L 160.027344 310.914062 C 171.742188 310.914062 178.027344 303.609375 178.535156 289.175781 C 185.328125 285.949219 209.441406 274.40625 226.082031 266.59375 C 247.304688 256.574219 262.078125 230.253906 262.078125 202.746094 L 262.078125 172.691406 C 267.851562 174.21875 277.703125 176.425781 281.605469 175.578125 C 281.945312 175.578125 321 165.21875 325.417969 151.296875 C 326.09375 149.089844 326.265625 145.523438 323.039062 141.957031 Z M 241.023438 116.824219 C 249.003906 109.355469 253.589844 100.863281 256.304688 92.882812 C 255.117188 100.523438 251.890625 111.5625 243.910156 120.050781 C 242.890625 119.035156 242.042969 118.015625 241.023438 116.824219 Z M 251.890625 83.542969 C 250.023438 92.203125 245.777344 103.070312 236.4375 112.070312 C 234.402344 110.035156 232.363281 108.164062 230.15625 106.46875 C 235.589844 102.394531 245.4375 94.410156 251.890625 83.542969 Z M 161.046875 101.542969 C 158.160156 103.410156 155.101562 105.617188 152.214844 107.996094 C 143.386719 95.941406 141.519531 82.1875 141.519531 72.847656 C 146.953125 84.054688 156.632812 96.109375 161.046875 101.542969 Z M 135.574219 82.863281 C 136.765625 91.863281 139.988281 102.394531 147.121094 112.242188 C 145.59375 113.601562 144.066406 114.957031 142.707031 116.316406 C 136.425781 105.28125 134.894531 92.882812 135.574219 82.863281 Z M 125.894531 180.332031 C 125.386719 178.464844 124.707031 176.425781 124.199219 174.390625 C 121.140625 165.21875 118.085938 155.710938 126.40625 144.84375 C 129.292969 140.769531 132.347656 137.03125 135.40625 133.46875 C 140.839844 140.257812 134.21875 158.769531 125.894531 180.332031 Z M 97.03125 118.523438 C 104.839844 117.503906 120.972656 124.976562 129.800781 129.730469 C 126.746094 133.296875 123.859375 137.03125 120.972656 140.9375 C 120.800781 141.109375 120.800781 141.277344 120.632812 141.449219 C 116.726562 133.296875 107.898438 126.503906 102.972656 124.636719 C 98.21875 122.769531 90.40625 122.769531 79.878906 125.484375 C 86.164062 122.089844 92.445312 119.035156 97.03125 118.523438 Z M 79.710938 156.898438 C 77.164062 155.542969 74.617188 154.183594 72.070312 152.824219 C 60.691406 147.390625 59.164062 143.316406 58.992188 142.296875 C 58.992188 142.125 58.992188 141.957031 58.992188 141.617188 C 81.238281 129.222656 95.671875 128.882812 100.59375 130.917969 C 106.539062 133.128906 117.40625 143.144531 115.878906 150.445312 C 114.519531 154.523438 114.179688 158.429688 114.351562 162.164062 C 100.59375 168.277344 90.40625 162.84375 79.710938 156.898438 Z M 104.332031 307.175781 C 107.046875 307.007812 109.253906 306.835938 111.125 306.667969 C 115.367188 306.328125 118.59375 305.988281 125.726562 306.328125 C 134.386719 306.835938 138.292969 308.027344 141.6875 309.214844 C 142.539062 309.382812 143.214844 309.722656 144.066406 309.894531 C 140.328125 311.761719 134.386719 313.628906 125.386719 313.628906 C 114.859375 313.628906 108.238281 310.234375 104.332031 307.175781 Z M 255.457031 202.746094 C 255.457031 227.878906 242.210938 251.652344 223.363281 260.648438 C 208.25 267.78125 187.195312 277.800781 178.195312 282.046875 C 176.5 269.648438 169.367188 264.214844 169.027344 264.046875 C 167.5 263.027344 165.460938 263.367188 164.441406 264.726562 C 163.421875 266.253906 163.59375 268.292969 165.121094 269.308594 C 165.460938 269.480469 171.742188 274.574219 171.914062 287.140625 C 171.914062 304.289062 163.933594 304.289062 160.027344 304.289062 L 152.214844 304.289062 C 148.480469 304.289062 146.273438 303.609375 143.554688 302.761719 C 139.988281 301.574219 135.574219 300.214844 126.066406 299.707031 C 118.425781 299.195312 114.6875 299.535156 110.445312 300.042969 C 107.046875 300.382812 103.3125 300.722656 96.691406 300.722656 C 94.484375 300.722656 91.425781 300.722656 91.425781 291.386719 C 91.425781 290.367188 91.425781 289.515625 91.425781 288.667969 C 92.105469 286.460938 93.292969 287.988281 94.3125 286.289062 C 95.5 284.253906 94.820312 282.726562 93.804688 280.855469 C 93.125 279.839844 92.273438 278.480469 91.9375 277.121094 C 92.785156 270.328125 95.160156 265.746094 102.292969 253.859375 C 109.085938 242.480469 116.046875 226.6875 120.800781 212.765625 C 124.027344 203.425781 127.425781 194.425781 130.820312 185.597656 C 141.007812 159.105469 149.160156 137.542969 139.988281 128.203125 C 158.667969 108.164062 179.046875 96.621094 190.929688 96.621094 C 209.78125 96.621094 229.988281 112.070312 241.363281 127.863281 C 228.96875 131.089844 195.007812 140.257812 183.96875 146.371094 C 169.707031 154.183594 160.875 184.070312 160.535156 185.257812 C 146.613281 226.519531 147.121094 237.21875 149.160156 241.972656 C 150.859375 245.707031 154.082031 247.066406 157.308594 248.425781 C 162.234375 250.460938 169.027344 253.179688 176.835938 265.746094 C 177.515625 266.761719 178.535156 267.273438 179.722656 267.273438 C 180.402344 267.273438 180.914062 267.101562 181.421875 266.761719 C 182.949219 265.746094 183.460938 263.707031 182.441406 262.179688 C 173.613281 247.914062 165.292969 244.519531 159.855469 242.3125 C 156.800781 241.121094 155.613281 240.445312 155.101562 239.253906 C 153.914062 236.367188 153.574219 225.671875 166.648438 187.125 C 169.027344 179.144531 177.007812 157.578125 186.855469 152.144531 C 199.421875 145.183594 246.96875 133.296875 247.476562 133.128906 C 247.644531 133.128906 247.644531 132.957031 247.816406 132.957031 C 247.816406 132.957031 247.984375 132.957031 247.984375 132.957031 C 253.078125 130.917969 267.511719 125.484375 273.964844 124.808594 C 278.378906 124.808594 288.570312 128.203125 298.585938 133.128906 C 291.457031 131.429688 284.324219 130.582031 278.042969 132.617188 C 262.589844 137.542969 255.457031 154.011719 255.289062 168.105469 L 255.289062 202.746094 Z M 319.132812 149.257812 C 316.585938 157.238281 287.550781 167.597656 280.417969 168.957031 C 277.191406 169.636719 267.683594 167.257812 262.417969 165.730469 C 263.269531 154.691406 268.871094 142.636719 280.417969 139.070312 C 291.796875 135.503906 308.777344 143.144531 318.792969 147.730469 L 319.304688 147.898438 C 319.132812 148.578125 319.132812 148.917969 319.132812 149.257812 Z M 319.132812 149.257812 " fill-opacity="1" fill-rule="nonzero"/></g><path fill="#6b3e0a" d="M 129.972656 277.121094 C 126.574219 278.480469 123.859375 275.421875 120.125 278.140625 C 115.199219 281.707031 116.386719 287.988281 120.125 288.835938 C 123.859375 289.515625 132.179688 287.988281 135.066406 271.6875 C 135.066406 271.6875 133.539062 275.761719 129.972656 277.121094 Z M 129.972656 277.121094 " fill-opacity="1" fill-rule="nonzero"/><path fill="#6b3e0a" d="M 205.363281 165.558594 C 190.421875 167.257812 185.667969 183.050781 185.667969 183.050781 C 194.496094 177.277344 203.667969 182.878906 211.648438 180.503906 C 219.628906 178.125 217.25 169.296875 226.589844 170.144531 C 226.421875 169.976562 220.308594 163.691406 205.363281 165.558594 Z M 205.363281 165.558594 " fill-opacity="1" fill-rule="nonzero"/><path fill="#6b3e0a" d="M 284.664062 191.539062 C 282.796875 191.878906 281.777344 193.746094 282.117188 195.445312 C 282.117188 195.785156 288.570312 228.386719 272.097656 256.574219 C 258.175781 280.515625 241.703125 286.800781 214.535156 297.328125 C 209.101562 299.535156 203.15625 301.742188 196.875 304.289062 C 195.175781 304.96875 194.328125 307.007812 195.007812 308.703125 C 195.515625 310.0625 196.703125 310.742188 198.0625 310.742188 C 198.402344 310.742188 198.914062 310.742188 199.25 310.402344 C 205.535156 307.855469 211.476562 305.480469 216.910156 303.441406 C 244.417969 292.742188 262.589844 285.613281 277.703125 259.800781 C 295.53125 229.238281 288.738281 195.277344 288.570312 193.917969 C 288.230469 192.390625 286.363281 191.199219 284.664062 191.539062 Z M 284.664062 191.539062 " fill-opacity="1" fill-rule="nonzero"/></svg>