<svg width="1543" height="902" viewBox="0 0 1543 902" fill="none" xmlns="http://www.w3.org/2000/svg">
<g clip-path="url(#clip0_1_2)">
<path d="M894.552 595.258C894.484 594.124 893.514 593.201 892.239 593.036C890.973 592.864 889.732 593.537 889.299 594.606C889.245 594.739 883.551 607.983 850.525 616.951C816.488 626.193 813.726 650.887 813.506 654.544C810.927 656.584 808.747 658.373 807.081 659.766C806.699 653.679 806.173 648.412 805.445 645.442C806.221 641.893 808.928 623.635 788.484 603.338C773.43 588.395 747.862 592.307 734.351 598.581C729.437 600.863 727.51 602.825 728.104 604.943C728.303 605.654 729.122 607.307 732.418 607.307C742.643 607.307 746.875 607.307 756.972 627.354C766.43 646.133 790.616 647.938 799.558 647.938C799.889 647.938 800.19 647.935 800.477 647.93C802.65 659.905 802.678 697.522 802.678 697.924C802.678 699.242 803.888 700.309 805.38 700.309C806.873 700.309 808.083 699.242 808.083 697.924C808.083 696.837 808.07 680.655 807.419 666.114C808.115 665.507 811.689 662.416 817.03 658.198C821.167 660.165 830.392 663.797 842.149 663.797C850.168 663.797 859.366 662.106 868.924 657.046C897.017 642.172 894.665 597.167 894.552 595.258ZM769.277 610.245C768.131 609.402 766.429 609.539 765.472 610.55C764.517 611.562 764.671 613.065 765.817 613.908C776.959 622.101 793.348 635.565 798.546 643.141C789.929 642.977 769.684 640.853 761.91 625.416C752.371 606.476 746.614 603.187 737.21 602.642C741.646 600.661 749.224 598.282 757.73 597.84C765.53 597.435 776.488 598.609 784.443 606.507C796.925 618.899 800.034 630.275 800.532 637.377C791.241 626.54 771.963 612.22 769.277 610.245ZM866.142 652.956C846.663 663.268 828.876 657.982 821.394 654.811C836.157 643.555 859.437 627.826 875.909 626.373C877.393 626.243 878.477 625.074 878.329 623.763C878.18 622.454 876.871 621.507 875.37 621.627C858.098 623.151 835.064 638.226 819.76 649.721C821.815 642 828.743 627.856 852.113 621.509C872.829 615.885 883.627 608.554 889.11 603.217C888.514 616.448 884.916 643.017 866.142 652.956Z" fill="#2A6041"/>
<path d="M886.333 36.6973C885.77 34.5553 883.849 33 881.565 33C880.01 33 878.62 33.7245 877.718 34.8506L877.71 34.8585C871.257 42.4618 862.803 48.183 853.16 51.2306L852.782 51.333C846.246 53.4592 838.638 54.9752 830.779 55.5816L830.441 55.6012C821.4 55.9714 812.927 57.9992 805.185 61.3815L805.634 61.2043C791.987 68.5911 782.876 82.8015 782.876 99.1342C782.876 99.3862 782.879 99.6343 782.883 99.8824V99.843C782.923 101.095 783.005 102.328 783.151 103.564C783.718 108.088 784.895 112.199 786.604 116.018L786.494 115.743C780.698 123.409 775.634 132.146 771.697 141.478L771.398 142.281C771.146 142.852 771 143.518 771 144.219C771 146.235 772.217 147.971 773.953 148.731L773.985 148.743C774.552 148.995 775.209 149.144 775.902 149.144H775.918H775.922C777.938 149.144 779.674 147.932 780.434 146.191L780.446 146.16C783.844 138.076 787.664 131.146 792.101 124.681L791.841 125.082C796.365 131.182 802.244 136.029 809.048 139.23L809.324 139.348C815.159 142.018 821.987 143.569 829.173 143.569C829.275 143.569 829.377 143.569 829.476 143.569H829.46C837.166 143.537 844.501 141.97 851.183 139.163L850.809 139.301C872.166 129.646 887.353 109.702 890.117 85.9633L890.149 85.6522C890.743 81.1123 891.082 75.8636 891.082 70.5362C891.082 58.4835 889.346 46.8324 886.105 35.8271L886.325 36.6934L886.333 36.6973ZM880.419 84.1914C878.143 104.745 865.268 121.834 847.451 130.032L847.096 130.177C842.056 132.386 836.181 133.674 830.007 133.674C824.015 133.674 818.305 132.461 813.108 130.272L813.395 130.378C807.079 127.394 801.937 122.814 798.346 117.156L798.259 117.01C811.466 103.249 829.814 94.5077 850.207 93.8895L850.321 93.8856C852.825 93.6336 854.766 91.5388 854.766 88.9873C854.766 86.2704 852.561 84.0654 849.845 84.0654C849.675 84.0654 849.51 84.0733 849.348 84.0891H849.368C827.822 84.9789 808.454 93.6493 793.861 107.344L793.908 107.301C793.507 105.934 793.168 104.284 792.956 102.591L792.94 102.426C792.833 101.481 792.763 100.528 792.739 99.5792C792.735 99.3902 792.731 99.1657 792.731 98.9413C792.731 86.4988 799.649 75.6746 809.851 70.0991L810.025 70.0125C816.325 67.3389 823.633 65.6655 831.295 65.3899L831.401 65.3859C840.41 64.689 848.762 63.0077 856.715 60.4326L855.948 60.6491C864.76 57.7354 872.371 53.3726 878.903 47.7853L878.813 47.8641C880.403 54.6956 881.313 62.5391 881.313 70.5952C881.313 75.3832 880.99 80.1004 880.368 84.7191L880.427 84.1796L880.419 84.1914Z" fill="#2A6041"/>
<path d="M329 444L303.8 368.4H136.4L111.2 444H21.8L168.8 24H271.4L419 444H329ZM162.8 291H278L220.4 119.4L162.8 291ZM701.778 144H777.378V429.6C777.378 476 761.978 511.4 731.178 535.8C700.778 560.2 663.978 572.4 620.778 572.4C588.378 572.4 559.778 566.2 534.978 553.8C510.578 541.4 491.778 523.2 478.578 499.2L544.578 461.4C559.778 489.4 585.978 503.4 623.178 503.4C647.578 503.4 666.778 497 680.778 484.2C694.778 471.4 701.778 453.2 701.778 429.6V397.2C678.978 427.6 646.978 442.8 605.778 442.8C563.378 442.8 527.778 428 498.978 398.4C470.578 368.4 456.378 332 456.378 289.2C456.378 246.8 470.778 210.6 499.578 180.6C528.378 150.6 563.778 135.6 605.778 135.6C646.978 135.6 678.978 150.8 701.778 181.2V144ZM557.178 348.6C573.178 363.8 593.378 371.4 617.778 371.4C642.178 371.4 662.178 363.8 677.778 348.6C693.778 333 701.778 313.2 701.778 289.2C701.778 265.6 693.778 246.2 677.778 231C662.178 215.4 642.178 207.6 617.778 207.6C593.378 207.6 573.178 215.4 557.178 231C541.578 246.2 533.778 265.6 533.778 289.2C533.778 313.2 541.578 333 557.178 348.6ZM948.964 195.6C956.164 176.4 967.964 162 984.364 152.4C1001.16 142.8 1019.76 138 1040.16 138V224.4C1016.56 221.6 995.364 226.4 976.564 238.8C958.164 251.2 948.964 271.8 948.964 300.6V444H871.564V144H948.964V195.6ZM1353.9 406.8C1323.1 437.2 1285.5 452.4 1241.1 452.4C1196.7 452.4 1159.1 437.2 1128.3 406.8C1097.9 376 1082.7 338.4 1082.7 294C1082.7 249.6 1097.9 212.2 1128.3 181.8C1159.1 151 1196.7 135.6 1241.1 135.6C1285.5 135.6 1323.1 151 1353.9 181.8C1384.7 212.2 1400.1 249.6 1400.1 294C1400.1 338.4 1384.7 376 1353.9 406.8ZM1182.9 353.4C1198.5 369 1217.9 376.8 1241.1 376.8C1264.3 376.8 1283.7 369 1299.3 353.4C1314.9 337.8 1322.7 318 1322.7 294C1322.7 270 1314.9 250.2 1299.3 234.6C1283.7 219 1264.3 211.2 1241.1 211.2C1217.9 211.2 1198.5 219 1182.9 234.6C1167.7 250.2 1160.1 270 1160.1 294C1160.1 318 1167.7 337.8 1182.9 353.4ZM204.8 622V668.2H138.65V867H90.35V668.2H24.55V622H204.8ZM344.877 692H390.027V867H344.877V846.35C331.343 863.383 312.327 871.9 287.827 871.9C264.493 871.9 244.427 863.033 227.627 845.3C211.06 827.333 202.777 805.4 202.777 779.5C202.777 753.6 211.06 731.783 227.627 714.05C244.427 696.083 264.493 687.1 287.827 687.1C312.327 687.1 331.343 695.617 344.877 712.65V692ZM261.577 815.2C270.677 824.3 282.227 828.85 296.227 828.85C310.227 828.85 321.777 824.3 330.877 815.2C340.21 805.867 344.877 793.967 344.877 779.5C344.877 765.033 340.21 753.25 330.877 744.15C321.777 734.817 310.227 730.15 296.227 730.15C282.227 730.15 270.677 734.817 261.577 744.15C252.477 753.25 247.927 765.033 247.927 779.5C247.927 793.967 252.477 805.867 261.577 815.2ZM444.968 867V611.5H490.118V867H444.968ZM583.593 798.05C589.66 819.983 606.11 830.95 632.943 830.95C650.21 830.95 663.276 825.117 672.143 813.45L708.543 834.45C691.276 859.417 665.843 871.9 632.243 871.9C603.31 871.9 580.093 863.15 562.593 845.65C545.093 828.15 536.343 806.1 536.343 779.5C536.343 753.133 544.976 731.2 562.243 713.7C579.51 695.967 601.676 687.1 628.743 687.1C654.41 687.1 675.526 695.967 692.093 713.7C708.893 731.433 717.293 753.367 717.293 779.5C717.293 785.333 716.71 791.517 715.543 798.05H583.593ZM582.893 763.05H672.143C669.576 751.15 664.21 742.283 656.043 736.45C648.11 730.617 639.01 727.7 628.743 727.7C616.61 727.7 606.576 730.85 598.643 737.15C590.71 743.217 585.46 751.85 582.893 763.05ZM860.112 687.1C879.245 687.1 894.995 693.517 907.362 706.35C919.962 719.183 926.262 736.917 926.262 759.55V867H881.112V765.15C881.112 753.483 877.962 744.617 871.662 738.55C865.362 732.25 856.962 729.1 846.462 729.1C834.795 729.1 825.462 732.717 818.462 739.95C811.462 747.183 807.962 758.033 807.962 772.5V867H762.812V692H807.962V711.6C818.929 695.267 836.312 687.1 860.112 687.1ZM1078.91 735.4H1039.36V808.2C1039.36 814.267 1040.88 818.7 1043.91 821.5C1046.95 824.3 1051.38 825.933 1057.21 826.4C1063.05 826.633 1070.28 826.517 1078.91 826.05V867C1047.88 870.5 1025.95 867.583 1013.11 858.25C1000.51 848.917 994.214 832.233 994.214 808.2V735.4H963.764V692H994.214V656.65L1039.36 643V692H1078.91V735.4Z" fill="#2A6041"/>
</g>
<defs>
<clipPath id="clip0_1_2">
<rect width="1543" height="902" fill="white"/>
</clipPath>
</defs>
</svg>
