<svg width="21" height="27" viewBox="0 0 21 27" fill="none" xmlns="http://www.w3.org/2000/svg">
<path d="M10.5 14.2082C12.4675 14.2082 14.0625 12.5955 14.0625 10.606C14.0625 8.61653 12.4675 7.00375 10.5 7.00375C8.53249 7.00375 6.9375 8.61653 6.9375 10.606C6.9375 12.5955 8.53249 14.2082 10.5 14.2082Z" stroke="white" stroke-width="2" stroke-linecap="round" stroke-linejoin="round"/>
<path d="M10.5 1C7.98044 1 5.56408 2.01206 3.78249 3.81353C2.00089 5.615 1 8.05831 1 10.606C1 12.8778 1.47737 14.3643 2.78125 16.0093L10.5 25.0149L18.2188 16.0093C19.5226 14.3643 20 12.8778 20 10.606C20 8.05831 18.9991 5.615 17.2175 3.81353C15.4359 2.01206 13.0196 1 10.5 1Z" stroke="white" stroke-width="2" stroke-linecap="round" stroke-linejoin="round"/>
</svg>
