<svg width="40" height="40" viewBox="0 0 40 40" fill="none" xmlns="http://www.w3.org/2000/svg">
<path d="M36.0568 6.71807C34.6984 7.35973 32.3868 8.56307 31.2251 8.79307C31.1801 8.80473 31.1434 8.81973 31.1001 8.8314C29.7451 7.49473 27.8884 6.6664 25.8334 6.6664C21.6918 6.6664 18.3334 10.0247 18.3334 14.1664C18.3334 14.3847 18.3151 14.7864 18.3334 14.9997C12.9701 14.9997 9.05343 12.2014 6.12176 8.60473C5.73009 8.1214 5.31343 8.37307 5.22676 8.7164C5.03176 9.49307 4.96509 10.7914 4.96509 11.7181C4.96509 14.0531 6.79009 16.3464 9.63176 17.7681C9.10843 17.9031 8.53176 17.9997 7.93176 17.9997C7.22509 17.9997 6.41176 17.8147 5.70009 17.4414C5.43676 17.3031 4.86843 17.3414 5.03676 18.0147C5.71176 20.7131 8.79176 22.6081 11.5434 23.1597C10.9184 23.5281 9.58509 23.4531 8.97176 23.4531C8.74509 23.4531 7.95676 23.3997 7.44676 23.3364C6.98176 23.2797 6.26676 23.3997 6.86509 24.3064C8.15009 26.2514 11.0568 27.4731 13.5584 27.5197C11.2551 29.3264 7.48843 29.9864 3.88009 29.9864C3.15009 29.9697 3.18676 30.8014 3.77509 31.1097C6.43676 32.5064 10.7968 33.3331 13.9118 33.3331C26.2951 33.3331 33.3334 23.8947 33.3334 14.9981C33.3334 14.8547 33.3301 14.5547 33.3251 14.2531C33.3251 14.2231 33.3334 14.1947 33.3334 14.1647C33.3334 14.1197 33.3201 14.0764 33.3201 14.0314C33.3151 13.8047 33.3101 13.5931 33.3051 13.4831C34.2868 12.7747 35.7901 11.5447 36.5501 10.6031C36.8084 10.2831 36.6001 9.89473 36.2484 10.0164C35.3434 10.3314 33.7784 10.9414 32.7984 11.0581C34.7601 9.75973 35.7301 8.62973 36.5634 7.37473C36.8484 6.9464 36.4918 6.5114 36.0568 6.71807Z" fill="#0A142F"/>
</svg>
