<?xml version="1.0" standalone="no"?>
<!DOCTYPE svg PUBLIC "-//W3C//DTD SVG 20010904//EN"
 "http://www.w3.org/TR/2001/REC-SVG-20010904/DTD/svg10.dtd">
<svg version="1.0" xmlns="http://www.w3.org/2000/svg"
 width="700.000000pt" height="700.000000pt" viewBox="0 0 700.000000 700.000000"
 preserveAspectRatio="xMidYMid meet">
<metadata>
Created by potrace 1.14, written by Peter Selinger 2001-2017
</metadata>
<g transform="translate(0.000000,700.000000) scale(0.100000,-0.100000)"
fill="#000000" stroke="none">
<path d="M5235 6949 c-100 -78 -304 -161 -493 -200 -121 -25 -133 -27 -157
-33 -11 -2 -41 -9 -67 -15 -140 -32 -319 -107 -418 -174 -104 -71 -208 -188
-274 -308 -43 -79 -88 -197 -80 -210 6 -10 272 -5 333 6 30 6 162 41 186 49 6
2 21 7 33 11 48 16 184 86 254 131 105 69 217 168 307 274 39 46 -38 -82 -94
-155 -71 -93 -116 -140 -200 -209 -95 -77 -93 -76 -101 -76 -3 0 -19 -9 -34
-20 -54 -38 -205 -108 -300 -138 -129 -41 -240 -60 -395 -66 -71 -4 -141 -8
-155 -10 -14 -3 -47 -7 -75 -11 -125 -14 -295 -53 -455 -102 -796 -244 -1455
-858 -1763 -1643 -78 -199 -143 -444 -162 -615 -4 -33 -9 -68 -11 -78 -7 -41
-16 -182 -18 -290 -4 -231 29 -496 89 -726 19 -76 62 -217 74 -246 5 -11 26
-63 46 -115 161 -405 435 -778 799 -1088 172 -146 437 -308 676 -412 195 -85
507 -176 676 -196 23 -3 52 -7 63 -9 173 -33 644 -22 848 20 238 49 400 96
583 172 74 31 140 59 145 63 6 4 48 27 95 51 211 107 452 285 644 474 56 55
203 218 226 250 12 17 -60 -45 -95 -81 -28 -30 -174 -151 -247 -205 -328 -243
-785 -423 -1206 -474 -912 -111 -1823 280 -2378 1022 -411 549 -589 1284 -474
1953 5 30 12 69 15 86 9 59 65 263 91 336 120 334 288 620 519 882 27 31 54
56 58 56 5 0 38 14 74 30 86 40 243 92 368 123 89 23 130 31 215 44 167 25
442 24 620 -3 136 -20 377 -97 506 -161 164 -82 256 -143 139 -93 -97 42 -368
103 -515 116 -153 14 -367 9 -500 -12 -68 -10 -246 -55 -320 -80 -103 -36
-319 -142 -413 -204 l-78 -51 52 -47 c185 -168 443 -302 664 -345 129 -26 154
-28 280 -27 135 0 168 3 305 26 81 14 288 68 402 105 268 86 305 98 363 113
33 8 76 18 95 21 19 3 51 10 70 15 19 5 67 12 105 16 39 3 79 8 90 10 37 8
240 4 315 -5 41 -5 76 -8 77 -7 4 4 -220 220 -292 283 -131 113 -164 140 -270
217 -216 159 -369 249 -570 336 -115 50 -312 111 -403 125 -20 3 -62 10 -92
15 -57 9 -362 7 -416 -4 -16 -4 -66 -15 -110 -26 -43 -10 -80 -18 -81 -17 -3
3 184 87 242 109 220 84 464 143 685 165 90 9 421 10 505 1 244 -27 507 -91
699 -172 22 -9 41 -14 44 -12 8 9 -242 124 -373 171 -115 41 -348 107 -383
108 -20 0 -1 13 39 26 49 16 160 83 236 143 173 136 329 364 447 650 59 144
142 409 128 407 -4 0 -29 -18 -57 -40z"/>
<path d="M3177 3154 c-1 -1 -73 -4 -159 -8 -87 -4 -163 -8 -170 -11 -7 -2 -40
-6 -73 -10 -123 -12 -188 -22 -325 -50 -134 -28 -280 -67 -280 -75 0 -3 60 -6
133 -6 225 -1 481 -16 682 -39 95 -11 132 -16 160 -20 17 -3 46 -7 65 -10 88
-12 119 -17 169 -27 30 -5 64 -11 75 -13 19 -3 157 -31 271 -55 176 -38 462
-124 675 -202 295 -110 563 -238 808 -387 51 -31 101 -61 110 -66 22 -13 74
-48 87 -57 6 -5 66 -49 135 -100 152 -112 299 -238 437 -375 56 -57 105 -103
108 -103 13 0 1 166 -16 241 -110 470 -640 903 -1417 1158 -115 38 -344 99
-452 120 -30 6 -66 14 -80 16 -14 3 -41 8 -60 10 -19 3 -44 8 -56 10 -11 3
-40 7 -65 10 -24 3 -60 7 -79 10 -19 3 -57 7 -85 10 -27 3 -67 8 -87 10 -93
11 -502 26 -511 19z"/>
<path d="M1975 2940 c-38 -16 -67 -30 -62 -31 4 -1 10 -2 15 -3 4 -1 36 -6 72
-10 36 -4 72 -9 80 -11 8 -1 33 -6 55 -9 122 -20 393 -74 405 -81 4 -2 22 -7
41 -10 112 -19 599 -170 724 -225 22 -10 85 -36 140 -60 150 -63 400 -193 551
-286 509 -313 923 -724 1204 -1194 39 -66 74 -120 78 -120 13 0 185 98 274
156 89 59 318 240 318 251 0 3 -20 24 -44 47 -23 22 -76 73 -117 111 -41 39
-114 104 -164 145 -49 41 -92 77 -95 80 -19 21 -274 205 -392 283 -657 434
-1409 739 -2193 891 -135 26 -284 51 -370 61 -27 4 -57 8 -65 10 -8 2 -51 7
-95 11 -44 3 -82 7 -85 9 -3 2 -50 5 -105 8 -94 6 -104 4 -170 -23z"/>
<path d="M1831 2881 l-32 -17 58 -18 c272 -84 696 -297 923 -465 30 -23 66
-49 80 -59 148 -105 464 -410 588 -567 35 -44 71 -89 80 -100 34 -42 166 -234
220 -320 104 -168 224 -402 301 -586 l39 -94 149 1 c191 1 289 11 453 46 52
11 110 23 128 25 19 3 36 11 39 19 2 7 -24 64 -58 126 -462 834 -1259 1469
-2319 1848 -112 40 -341 112 -400 125 -8 2 -53 13 -100 25 -47 11 -92 22 -101
24 -9 2 -30 -4 -48 -13z"/>
<path d="M1763 2833 c3 -5 9 -38 12 -73 4 -36 8 -67 10 -70 2 -3 6 -25 10 -50
4 -25 8 -47 10 -51 2 -3 7 -21 10 -40 9 -55 24 -106 66 -231 93 -279 224 -520
408 -753 54 -68 261 -282 331 -341 222 -187 513 -349 798 -444 85 -28 160 -50
167 -48 23 6 -123 332 -247 548 -58 101 -208 336 -241 376 -9 10 -50 64 -93
119 -191 249 -456 514 -709 710 -49 38 -94 73 -100 78 -90 74 -449 298 -432
270z"/>
</g>
</svg>
